<?xml version="1.0" encoding="utf-8"?>
<!-- Generator: Adobe Illustrator 25.1.0, SVG Export Plug-In . SVG Version: 6.00 Build 0)  -->
<svg version="1.1"
	 id="svg5" xmlns:inkscape="http://www.inkscape.org/namespaces/inkscape" xmlns:sodipodi="http://sodipodi.sourceforge.net/DTD/sodipodi-0.dtd" xmlns:svg="http://www.w3.org/2000/svg"
	 xmlns="http://www.w3.org/2000/svg" xmlns:xlink="http://www.w3.org/1999/xlink" x="0px" y="0px" viewBox="0 0 595.3 841.9"
	 style="enable-background:new 0 0 595.3 841.9;" xml:space="preserve">
<sodipodi:namedview  bordercolor="#666666" borderopacity="1.0" id="namedview7" inkscape:current-layer="layer2" inkscape:cx="420.59928" inkscape:cy="750.99608" inkscape:document-units="mm" inkscape:pagecheckerboard="0" inkscape:pageopacity="0.0" inkscape:pageshadow="2" inkscape:window-height="1001" inkscape:window-maximized="1" inkscape:window-width="1920" inkscape:window-x="-9" inkscape:window-y="-9" inkscape:zoom="1.4467452" pagecolor="#ffffff" showgrid="false">
	</sodipodi:namedview>
<g id="layer1" inkscape:groupmode="layer" inkscape:label="Aleft">
	<path id="path829" d="M236.8,239.8c-8.1,3.3-15.9,7.4-23.1,12c-0.4,0.2-0.5,0.4-0.9,0.7c-8.6,5.5-16.6,11.8-24,18.9
		c-1.6,1.6-3,3-4.6,4.6c-7.1,7.4-13.4,15.5-18.9,24.2c-0.2,0.2-0.4,0.5-0.5,0.7c-4.6,7.4-8.6,15.2-12,23.3
		c-3.2,7.8-5.8,15.9-7.8,24.2c-1.9,7.8-3.2,15.9-3.7,24c-0.4,4.1-0.5,8.1-0.5,12.2c0,4.1,0.2,7.9,0.5,12c0.5,8.3,1.8,16.2,3.7,24.2
		c1.9,8.3,4.6,16.2,7.8,24c3.3,8.1,7.4,15.9,12,23.3c0.2,0.4,0.4,0.5,0.5,0.9c5.5,8.6,11.8,16.7,18.9,24c1.6,1.6,3,3.2,4.6,4.6
		c0-36.7,0-36.7,0-36.7c-3.5-5.1-6.7-10.4-9.5-16c-3.9-7.6-7.1-15.7-9.5-24c-2.1-7.8-3.7-15.9-4.4-24.2c71.4,0,71.4,0,71.4,0
		c0,132.4,0,132.4,0,132.4c7.8,3.3,15.7,6,24,7.9c0-304.6,0-304.6,0-304.6C252.5,234,244.6,236.7,236.8,239.8L236.8,239.8z
		 M236.8,372.4c-71.7,0-71.7,0-71.7,0c0.9-8.3,2.3-16.4,4.6-24.2c2.3-8.3,5.5-16.4,9.3-24c2.8-5.6,6.2-10.9,9.7-16
		c1.9-2.8,4.1-5.5,6.2-8.1c5.3-6.5,11.3-12.5,17.8-17.8c2.6-2.1,5.5-4.2,8.1-6.2c5.1-3.7,10.4-6.9,16-9.7V372.4z"/>
</g>
<g id="layer3" inkscape:groupmode="layer" inkscape:label="M">
	
		<path id="path827" sodipodi:nodetypes="scccccccccccccccsccccccccccccccccscccccccccccccccccccccccccccccccccccccccccccccccscccccccccccccccccccccccccccccccccccccccccccccccsss" d="
		M501.3,372.2c-0.4-8.3-1.4-16.2-2.8-24.2c-1.4-8.3-3.3-16.2-5.8-24.2c-2.5-8.1-5.5-16.2-9-24c-1.9-4.1-3.9-8.1-6-12
		c-2.1-4.1-4.6-8.1-7.1-12.2c-5.1-8.1-10.8-16-16.9-23.3c-0.2-0.4-0.5-0.5-0.7-0.7c-7.1-8.5-15-16.4-23.4-23.6
		c-0.2-0.2-0.5-0.4-0.7-0.5c-7.4-6.2-15.2-11.8-23.4-17.1c-3.9-2.5-7.9-4.8-12.2-7.1c-3.9-1.9-7.8-3.9-11.8-5.8
		c-7.8-3.5-15.9-6.5-24.2-9c-7.8-2.5-15.9-4.4-24-5.8c-7.9-1.4-16-2.5-24.2-3c-3.9-0.2-7.9-0.4-12-0.4c-4.1,0-8.1,0.2-12,0.4
		c-8.3,0.5-16.2,1.6-24.2,3c-8.3,1.4-16.2,3.3-24.2,5.8c-8.1,2.5-16.2,5.5-24,9c-4.1,1.9-8.1,3.9-12,5.8c-4.1,2.3-8.1,4.6-12.2,7.1
		c-8.1,5.3-16,10.9-23.3,17.1c-0.4,0.2-0.5,0.4-0.7,0.5c-8.5,7.2-16.4,15.2-23.6,23.6c-0.2,0.2-0.4,0.4-0.5,0.7
		c-6.2,7.2-11.8,15.2-17.1,23.3c-2.5,4.1-4.8,8.1-7.1,12.2c-1.9,3.9-3.9,7.9-5.8,12c-3.5,7.8-6.5,15.9-9,24
		c-2.5,7.9-4.4,15.9-6,24.2c-1.2,7.9-2.3,15.9-2.8,24.2c-0.2,3.9-0.4,7.9-0.4,12c0,4.1,0.2,8.1,0.4,12c0.5,8.1,1.6,16.2,2.8,24.2
		c1.6,8.1,3.5,16.2,5.8,24c2.6,8.3,5.6,16.4,9.2,24.2c1.9,4.1,3.9,7.9,5.8,11.8c2.3,4.2,4.6,8.3,7.1,12.3
		c5.3,8.1,10.9,15.9,17.1,23.3c0.2,0.2,0.4,0.5,0.5,0.7c7.2,8.5,15.2,16.4,23.6,23.4c0.2,0.2,0.4,0.5,0.7,0.7
		c7.2,6.2,15.2,11.8,23.3,16.9c4.1,2.5,8.1,4.9,12.2,7.1c3.9,2.1,7.9,4.1,12,6c7.8,3.5,15.9,6.5,24,9c7.9,2.5,15.9,4.4,24,5.8v-24.9
		l0,0c-8.1-1.6-16.4-4.1-24.2-6.7c-8.3-3-16.4-6.5-24.2-10.6c-1.9-1.1-3.9-2.1-5.8-3.2c-6.3-3.7-12.3-7.6-18.2-12
		c-5.1-3.7-9.9-7.8-14.5-12c-3.3-3.2-6.5-6.3-9.7-9.7c-4.2-4.6-8.3-9.3-12-14.3c-4.4-5.8-8.5-11.8-12-18.2c-1.2-1.9-2.3-3.9-3.3-5.8
		c-4.1-7.8-7.6-15.7-10.6-24c-2.6-7.8-4.9-15.7-6.7-24c-1.6-7.8-2.6-15.9-3.2-24h-0.4v-24h0.4c0.5-8.1,1.6-16.2,3.2-24
		c1.8-8.3,4.1-16.2,6.7-24c3-8.3,6.5-16.2,10.6-24c1.1-1.9,2.1-3.9,3.3-5.8c3.5-6.3,7.6-12.3,12-18.2c3.7-4.9,7.8-9.7,12-14.3
		c3.2-3.3,6.3-6.5,9.7-9.7c4.6-4.2,9.3-8.3,14.5-12c5.8-4.4,11.8-8.3,18.2-12c1.9-1.1,3.9-2.1,5.8-3.2c7.8-4.1,15.9-7.6,24.2-10.6
		c7.8-2.6,15.9-4.9,24-6.5c7.9-1.6,16-2.8,24.2-3.3v383.4h0.4c3.9,0.4,7.9,0.4,12,0.4c4.1,0,8.1,0,12-0.4h0.4V204.9
		c8.1,0.5,16.2,1.8,24.2,3.3c8.1,1.6,16.2,3.9,24,6.5c8.3,3,16.4,6.5,24.2,10.6c1.9,1.1,3.9,2.1,5.8,3.2c6.3,3.7,12.3,7.6,18.2,12
		c5.1,3.7,9.9,7.8,14.5,12c3.3,3.2,6.5,6.3,9.7,9.7c4.2,4.6,8.3,9.3,12,14.3c4.4,5.8,8.5,11.8,12,18.2c1.2,1.9,2.3,3.9,3.3,5.8
		c4.1,7.8,7.6,15.7,10.6,24c2.6,7.8,4.9,15.7,6.7,24c1.6,7.8,2.6,15.9,3.2,24h0.4v24h-0.4c-0.5,8.1-1.6,16.2-3.2,24
		c-1.8,8.3-4.1,16.2-6.7,24c-3,8.3-6.5,16.2-10.6,24c-1.1,1.9-2.1,3.9-3.3,5.8c-3.5,6.3-7.6,12.3-12,18.2c-3.7,4.9-7.8,9.7-12,14.3
		c-3.2,3.3-6.3,6.5-9.7,9.7c-4.6,4.2-9.3,8.3-14.5,12c-5.8,4.4-11.8,8.3-18.2,12c-1.9,1.1-3.9,2.1-5.8,3.2
		c-7.8,4.1-15.9,7.6-24.2,10.6c-7.8,2.6-15.9,4.9-24,6.5l0,0l-0.2,25c8.1-1.4,16-3.3,23.8-5.8c8.3-2.5,16.4-5.5,24.2-9
		c4.1-1.9,7.9-3.9,11.8-6c4.2-2.1,8.3-4.6,12.2-7.1c8.3-5.1,16-10.8,23.4-16.9c0.2-0.2,0.5-0.5,0.7-0.7c8.5-7.1,16.4-15,23.4-23.4
		c0.2-0.2,0.5-0.5,0.7-0.7c6.2-7.4,11.8-15.2,16.9-23.3c2.5-4.1,4.9-8.1,7.1-12.3c2.1-3.9,4.1-7.8,6-11.8c3.5-7.8,6.5-15.9,9-24.2
		c2.5-7.8,4.4-15.9,5.8-24c1.4-7.9,2.5-16,2.8-24.2c0.4-3.9,0.4-7.9,0.4-12C501.6,380.2,501.6,376.1,501.3,372.2z"/>
</g>
<g id="layer2" inkscape:groupmode="layer" inkscape:label="Aright">
	<path id="path831" d="M452.8,372.2c-0.5-8.1-1.8-16.2-3.7-24c-1.9-8.3-4.6-16.4-7.8-24.2c-3.3-8.1-7.4-15.9-12-23.3
		c-0.2-0.2-0.4-0.5-0.5-0.7c-5.5-8.6-11.8-16.7-18.9-24.2c-1.6-1.6-3-3-4.6-4.6c-7.4-7.1-15.3-13.4-24-19c-0.4-0.2-0.5-0.4-0.9-0.5
		c-7.2-4.6-15-8.6-23.1-12c-7.8-3.2-15.7-5.8-24-7.8c0,304.6,0,304.6,0,304.6c8.3-1.9,16.2-4.6,24-7.9c0-132.4,0-132.4,0-132.4
		c71.4,0,71.4,0,71.4,0c-0.7,8.3-2.3,16.4-4.4,24.2c-2.5,8.3-5.6,16.4-9.5,24c-2.8,5.6-6,10.9-9.5,16c0,36.7,0,36.7,0,36.7
		c1.6-1.4,3-3,4.6-4.6c7.1-7.2,13.4-15.3,18.9-24c0.2-0.4,0.4-0.5,0.5-0.9c4.6-7.4,8.6-15.2,12-23.3c3.2-7.8,5.8-15.7,7.8-24
		c1.9-7.9,3.2-15.9,3.7-24.2c0.4-4.1,0.5-7.9,0.5-12C453.3,380.3,453.1,376.3,452.8,372.2L452.8,372.2z M357.4,372.4
		c0-105.9,0-105.9,0-105.9c5.6,2.8,10.9,6,16,9.7c2.6,1.9,5.5,4.1,8.1,6.2c6.5,5.3,12.5,11.3,17.8,17.8c2.1,2.6,4.2,5.3,6.2,8.1
		c3.5,5.1,6.9,10.4,9.7,16c3.9,7.6,7.1,15.7,9.3,24c2.3,7.8,3.7,15.9,4.6,24.2H357.4z"/>
</g>
</svg>
